G04 Layer: TopPasteMaskLayer*
G04 EasyEDA v6.4.19.5, 2021-05-30T15:20:28--7:00*
G04 00a0cf8a2f6945cda59000bd480c23e2,9479053ce0554845bf9291591982ae42,10*
G04 Gerber Generator version 0.2*
G04 Scale: 100 percent, Rotated: No, Reflected: No *
G04 Dimensions in millimeters *
G04 leading zeros omitted , absolute positions ,4 integer and 5 decimal *
%FSLAX45Y45*%
%MOMM*%

%ADD12C,0.7000*%
%ADD14R,2.7000X1.2000*%
%ADD16R,3.0000X1.5000*%
%ADD18R,3.3000X1.6000*%
%ADD19R,1.6000X3.3000*%

%LPD*%
D12*
X2311400Y5939193D02*
G01*
X2311400Y6039192D01*
X2438400Y5939193D02*
G01*
X2438400Y6039192D01*
X2565400Y5939193D02*
G01*
X2565400Y6039192D01*
X2692400Y5939193D02*
G01*
X2692400Y6039192D01*
X2311400Y6559207D02*
G01*
X2311400Y6659206D01*
X2438400Y6559207D02*
G01*
X2438400Y6659206D01*
X2565400Y6559207D02*
G01*
X2565400Y6659206D01*
X2692400Y6559207D02*
G01*
X2692400Y6659206D01*
D14*
G01*
X4699000Y5709894D03*
G01*
X4699000Y5389879D03*
G36*
X1329400Y5380101D02*
G01*
X1449400Y5380101D01*
X1449400Y5110098D01*
X1329400Y5110098D01*
G37*
G36*
X1649415Y5380101D02*
G01*
X1769414Y5380101D01*
X1769414Y5110098D01*
X1649415Y5110098D01*
G37*
G36*
X2370800Y8491601D02*
G01*
X2490800Y8491601D01*
X2490800Y8221598D01*
X2370800Y8221598D01*
G37*
G36*
X2690815Y8491601D02*
G01*
X2810814Y8491601D01*
X2810814Y8221598D01*
X2690815Y8221598D01*
G37*
G01*
X6819900Y5722594D03*
G01*
X6819900Y5402579D03*
G01*
X5740400Y5722594D03*
G01*
X5740400Y5402579D03*
D16*
G01*
X3822700Y5793104D03*
G01*
X3822700Y5332095D03*
G36*
X2463101Y5395099D02*
G01*
X2613103Y5395099D01*
X2613103Y5095100D01*
X2463101Y5095100D01*
G37*
G36*
X2924096Y5395099D02*
G01*
X3074095Y5395099D01*
X3074095Y5095100D01*
X2924096Y5095100D01*
G37*
D18*
G01*
X1409700Y6624193D03*
G01*
X1409700Y5974181D03*
D19*
G01*
X9352406Y8341918D03*
G01*
X10002418Y8341918D03*
G01*
X9352406Y5874613D03*
G01*
X10002418Y5874613D03*
D18*
G01*
X7861300Y5237606D03*
G01*
X7861300Y5887593D03*
D19*
G01*
X9352406Y7108291D03*
G01*
X10002418Y7108291D03*
M02*
