M48
METRIC,LZ,000.000
;FILE_FORMAT=3:3
;TYPE=PLATED
;Layer: Drill PTH
;EasyEDA v6.4.19.5, 2021-05-30T15:20:28--7:00
;00a0cf8a2f6945cda59000bd480c23e2,9479053ce0554845bf9291591982ae42,10
;Gerber Generator version 0.2
;Holesize 1 = 0.310 mm
T01C0.310
;Holesize 2 = 0.762 mm
T02C0.762
;Holesize 3 = 0.889 mm
T03C0.889
%
G05
G90
T01
X014986Y053833
X024907Y067229
X044468Y056274
X038727Y059172
X028651Y081923
T02
X011811Y076327
X014351Y073787
X016891Y076327
T03
X032893Y093091
X032893Y090551
X035433Y093091
X035433Y090551
X037973Y093091
X037973Y090551
X040513Y093091
X040513Y090551
X043053Y093091
X043053Y090551
X045593Y093091
X045593Y090551
X048133Y093091
X048133Y090551
X050673Y093091
X050673Y090551
X053213Y093091
X053213Y090551
X055753Y093091
X055753Y090551
X058293Y093091
X058293Y090551
X060833Y093091
X060833Y090551
X063373Y093091
X063373Y090551
X065913Y093091
X065913Y090551
X068453Y093091
X068453Y090551
X070993Y093091
X070993Y090551
X073533Y093091
X073533Y090551
X076073Y093091
X076073Y090551
X078613Y093091
X078613Y090551
X081153Y093091
X081153Y090551
X092583Y089588
X095123Y089588
X097663Y089588
X100203Y089588
X092583Y077252
X095123Y077252
X097663Y077252
X100203Y077252
X092964Y064915
X095504Y064915
X098044Y064915
X100584Y064915
X093091Y052578
X095631Y052578
X098171Y052578
X100711Y052578
X015367Y083566
X012827Y083566
X023749Y075565
X026289Y075565
X032870Y074041
X032870Y076581
X035410Y074041
X035410Y076581
X037950Y074041
X037950Y076581
X040490Y074041
X040490Y076581
X043030Y074041
X043030Y076581
X045570Y074041
X045570Y076581
X048110Y074041
X048110Y076581
X050650Y074041
X050650Y076581
X053190Y074041
X053190Y076581
X055730Y074041
X055730Y076581
X058270Y074041
X058270Y076581
X060810Y074041
X060810Y076581
X063350Y074041
X063350Y076581
X065890Y074041
X065890Y076581
X068430Y074041
X068430Y076581
X070970Y074041
X070970Y076581
X073510Y074041
X073510Y076581
X076050Y074041
X076050Y076581
X078590Y074041
X078590Y076581
X081130Y074041
X081130Y076581
X017272Y091821
X019812Y091821
X022352Y091821
X024892Y091821
M30
