G04 Layer: BottomLayer*
G04 EasyEDA v6.4.19.5, 2021-05-30T15:20:28--7:00*
G04 00a0cf8a2f6945cda59000bd480c23e2,9479053ce0554845bf9291591982ae42,10*
G04 Gerber Generator version 0.2*
G04 Scale: 100 percent, Rotated: No, Reflected: No *
G04 Dimensions in millimeters *
G04 leading zeros omitted , absolute positions ,4 integer and 5 decimal *
%FSLAX45Y45*%
%MOMM*%

%ADD11C,0.2600*%
%ADD13C,0.6100*%
%ADD20R,1.5748X1.5748*%
%ADD21C,1.5748*%
%ADD22C,1.4000*%

%LPD*%
D11*
X1435100Y7378700D02*
G01*
X1435100Y5447029D01*
X1498600Y5383276D01*
X8115300Y9309100D02*
G01*
X8003793Y9197594D01*
X8003793Y7827010D01*
X8113013Y7717789D01*
X8113013Y7658100D01*
X8113013Y7404100D02*
G01*
X8225027Y7516113D01*
X8225027Y8945371D01*
X8115300Y9055100D01*
X7861300Y9309100D02*
G01*
X7749793Y9197594D01*
X7749793Y7827010D01*
X7859013Y7717789D01*
X7859013Y7658100D01*
X7859013Y7404100D02*
G01*
X7967472Y7512558D01*
X7967472Y7773670D01*
X7861300Y7879842D01*
X7861300Y9055100D01*
X7607300Y9309100D02*
G01*
X7495793Y9197594D01*
X7495793Y7827010D01*
X7605013Y7717789D01*
X7605013Y7658100D01*
X7605013Y7404100D02*
G01*
X7713472Y7512558D01*
X7713472Y7773670D01*
X7607300Y7879842D01*
X7607300Y9055100D01*
X7353300Y9309100D02*
G01*
X7241793Y9197594D01*
X7241793Y7827010D01*
X7351013Y7717789D01*
X7351013Y7658100D01*
X7351013Y7404100D02*
G01*
X7459472Y7512558D01*
X7459472Y7773670D01*
X7353300Y7879842D01*
X7353300Y9055100D01*
X7099300Y9309100D02*
G01*
X6987793Y9197594D01*
X6987793Y7827010D01*
X7097013Y7717789D01*
X7097013Y7658100D01*
X7097013Y7404100D02*
G01*
X7205472Y7512558D01*
X7205472Y7773670D01*
X7099300Y7879842D01*
X7099300Y9055100D01*
X6845300Y9309100D02*
G01*
X6733793Y9197594D01*
X6733793Y7827010D01*
X6843013Y7717789D01*
X6843013Y7658100D01*
X6843013Y7404100D02*
G01*
X6951472Y7512558D01*
X6951472Y7773670D01*
X6845300Y7879842D01*
X6845300Y9055100D01*
X6591300Y9309100D02*
G01*
X6479793Y9197594D01*
X6479793Y7827010D01*
X6589013Y7717789D01*
X6589013Y7658100D01*
X6589013Y7404100D02*
G01*
X6697472Y7512558D01*
X6697472Y7773670D01*
X6591300Y7879842D01*
X6591300Y9055100D01*
X6337300Y9309100D02*
G01*
X6225793Y9197594D01*
X6225793Y7827010D01*
X6335013Y7717789D01*
X6335013Y7658100D01*
X6335013Y7404100D02*
G01*
X6443472Y7512558D01*
X6443472Y7773670D01*
X6337300Y7879842D01*
X6337300Y9055100D01*
X6083300Y9309100D02*
G01*
X5971793Y9197594D01*
X5971793Y7827010D01*
X6081013Y7717789D01*
X6081013Y7658100D01*
X6081013Y7404100D02*
G01*
X6189472Y7512558D01*
X6189472Y7773670D01*
X6083300Y7879842D01*
X6083300Y9055100D01*
X5829300Y9309100D02*
G01*
X5717793Y9197594D01*
X5717793Y7827010D01*
X5827013Y7717789D01*
X5827013Y7658100D01*
X5827013Y7404100D02*
G01*
X5935472Y7512558D01*
X5935472Y7773670D01*
X5829300Y7879842D01*
X5829300Y9055100D01*
X5575300Y9309100D02*
G01*
X5463793Y9197594D01*
X5463793Y7827010D01*
X5573013Y7717789D01*
X5573013Y7658100D01*
X5573013Y7404100D02*
G01*
X5681472Y7512558D01*
X5681472Y7773670D01*
X5575300Y7879842D01*
X5575300Y9055100D01*
X5321300Y9309100D02*
G01*
X5209793Y9197594D01*
X5209793Y7827010D01*
X5319013Y7717789D01*
X5319013Y7658100D01*
X5319013Y7404100D02*
G01*
X5427472Y7512558D01*
X5427472Y7773670D01*
X5321300Y7879842D01*
X5321300Y9055100D01*
X5067300Y9309100D02*
G01*
X4955793Y9197594D01*
X4955793Y7827010D01*
X5065013Y7717789D01*
X5065013Y7658100D01*
X5065013Y7404100D02*
G01*
X5173472Y7512558D01*
X5173472Y7773670D01*
X5067300Y7879842D01*
X5067300Y9055100D01*
X4813300Y9309100D02*
G01*
X4701793Y9197594D01*
X4701793Y7827010D01*
X4811013Y7717789D01*
X4811013Y7658100D01*
X4811013Y7404100D02*
G01*
X4919472Y7512558D01*
X4919472Y7773670D01*
X4813300Y7879842D01*
X4813300Y9055100D01*
X4559300Y9309100D02*
G01*
X4447793Y9197594D01*
X4447793Y7827010D01*
X4557013Y7717789D01*
X4557013Y7658100D01*
X4557013Y7404100D02*
G01*
X4665472Y7512558D01*
X4665472Y7773670D01*
X4559300Y7879842D01*
X4559300Y9055100D01*
X4305300Y9309100D02*
G01*
X4193793Y9197594D01*
X4193793Y7827010D01*
X4303013Y7717789D01*
X4303013Y7658100D01*
X4051300Y9309100D02*
G01*
X3939793Y9197594D01*
X3939793Y7827010D01*
X4049013Y7717789D01*
X4049013Y7658100D01*
X4049013Y7404100D02*
G01*
X4157472Y7512558D01*
X4157472Y7773670D01*
X4051300Y7879842D01*
X4051300Y9055100D01*
X3797300Y9309100D02*
G01*
X3685793Y9197594D01*
X3685793Y7827010D01*
X3795013Y7717789D01*
X3795013Y7658100D01*
X3543300Y9309100D02*
G01*
X3431793Y9197594D01*
X3431793Y7827010D01*
X3541013Y7717789D01*
X3541013Y7658100D01*
X3541013Y7404100D02*
G01*
X3649472Y7512558D01*
X3649472Y7773670D01*
X3543300Y7879842D01*
X3543300Y9055100D01*
X9817100Y5257800D02*
G01*
X9804400Y5270500D01*
X9804400Y6491478D01*
X9804400Y6491478D02*
G01*
X9766300Y6529578D01*
X9766300Y7725155D01*
X9766300Y7725155D02*
G01*
X9766300Y8958834D01*
X3795013Y7404100D02*
G01*
X3903472Y7512558D01*
X3903472Y7773670D01*
X3797300Y7879842D01*
X3797300Y9055100D01*
X10071100Y5257800D02*
G01*
X10058400Y5270500D01*
X10058400Y6491478D01*
X10058400Y6491478D02*
G01*
X10020300Y6529578D01*
X10020300Y7725155D01*
X10020300Y7725155D02*
G01*
X10020300Y8958834D01*
X3287013Y7658100D02*
G01*
X3181350Y7763763D01*
X3181350Y9120124D01*
X3262375Y9201150D01*
X3289300Y9201150D01*
X3289300Y9309100D02*
G01*
X3289300Y9201150D01*
X1689100Y7632700D02*
G01*
X1536700Y7785100D01*
X1536700Y8356600D01*
X3287013Y7512050D02*
G01*
X3313938Y7512050D01*
X3395472Y7593584D01*
X3395472Y7773670D01*
X3289300Y7879842D01*
X3289300Y9055100D01*
X3287013Y7404100D02*
G01*
X3287013Y7512050D01*
X9563100Y5257800D02*
G01*
X9563100Y6478778D01*
X9550400Y6491478D01*
X9550400Y6491478D02*
G01*
X9550400Y7687055D01*
X9512300Y7725155D01*
X9512300Y7725155D02*
G01*
X9512300Y8958834D01*
X9309100Y5257800D02*
G01*
X9309100Y5365750D01*
X9309100Y5365750D02*
G01*
X9296400Y5378450D01*
X9296400Y6491478D01*
X9296400Y6491478D02*
G01*
X9296400Y6599428D01*
X9296400Y6599428D02*
G01*
X9258300Y6637528D01*
X9258300Y7725155D01*
X9258300Y7725155D02*
G01*
X9258300Y8958834D01*
X4303013Y7404100D02*
G01*
X4411472Y7512558D01*
X4411472Y7773670D01*
X4305300Y7879842D01*
X4305300Y9055100D01*
X4067047Y6007100D02*
G01*
X4446777Y5627370D01*
X4303013Y7404100D02*
G01*
X4303013Y6242812D01*
X4067047Y6007100D01*
X4067047Y6007100D02*
G01*
X3907536Y5847334D01*
X3366261Y5847334D01*
X2490724Y6722871D01*
X2865120Y8192262D02*
G01*
X2865120Y6924802D01*
X3872738Y5917184D01*
X1181100Y7632700D02*
G01*
X1282700Y7734300D01*
X1282700Y8356600D01*
G36*
X3210559Y9230360D02*
G01*
X3368040Y9230360D01*
X3368040Y9387839D01*
X3210559Y9387839D01*
G37*
D21*
G01*
X3289300Y9055100D03*
G01*
X3543300Y9309100D03*
G01*
X3543300Y9055100D03*
G01*
X3797300Y9309100D03*
G01*
X3797300Y9055100D03*
G01*
X4051300Y9309100D03*
G01*
X4051300Y9055100D03*
G01*
X4305300Y9309100D03*
G01*
X4305300Y9055100D03*
G01*
X4559300Y9309100D03*
G01*
X4559300Y9055100D03*
G01*
X4813300Y9309100D03*
G01*
X4813300Y9055100D03*
G01*
X5067300Y9309100D03*
G01*
X5067300Y9055100D03*
G01*
X5321300Y9309100D03*
G01*
X5321300Y9055100D03*
G01*
X5575300Y9309100D03*
G01*
X5575300Y9055100D03*
G01*
X5829300Y9309100D03*
G01*
X5829300Y9055100D03*
G01*
X6083300Y9309100D03*
G01*
X6083300Y9055100D03*
G01*
X6337300Y9309100D03*
G01*
X6337300Y9055100D03*
G01*
X6591300Y9309100D03*
G01*
X6591300Y9055100D03*
G01*
X6845300Y9309100D03*
G01*
X6845300Y9055100D03*
G01*
X7099300Y9309100D03*
G01*
X7099300Y9055100D03*
G01*
X7353300Y9309100D03*
G01*
X7353300Y9055100D03*
G01*
X7607300Y9309100D03*
G01*
X7607300Y9055100D03*
G01*
X7861300Y9309100D03*
G01*
X7861300Y9055100D03*
G01*
X8115300Y9309100D03*
G01*
X8115300Y9055100D03*
G36*
X9179559Y9037574D02*
G01*
X9337040Y9037574D01*
X9337040Y8880094D01*
X9179559Y8880094D01*
G37*
G01*
X9512300Y8958834D03*
G01*
X9766300Y8958834D03*
G01*
X10020300Y8958834D03*
G36*
X9179559Y7803895D02*
G01*
X9337040Y7803895D01*
X9337040Y7646415D01*
X9179559Y7646415D01*
G37*
G01*
X9512300Y7725155D03*
G01*
X9766300Y7725155D03*
G01*
X10020300Y7725155D03*
G36*
X9217659Y6570218D02*
G01*
X9375140Y6570218D01*
X9375140Y6412737D01*
X9217659Y6412737D01*
G37*
G01*
X9550400Y6491478D03*
G01*
X9804400Y6491478D03*
G01*
X10058400Y6491478D03*
G36*
X9230359Y5336539D02*
G01*
X9387840Y5336539D01*
X9387840Y5179060D01*
X9230359Y5179060D01*
G37*
G01*
X9563100Y5257800D03*
G01*
X9817100Y5257800D03*
G01*
X10071100Y5257800D03*
D20*
G01*
X1536700Y8356600D03*
D21*
G01*
X1282700Y8356600D03*
D20*
G01*
X2374900Y7556500D03*
D21*
G01*
X2628900Y7556500D03*
D22*
G01*
X1181100Y7632700D03*
G01*
X1435100Y7378700D03*
G01*
X1689100Y7632700D03*
G36*
X3208258Y7482839D02*
G01*
X3365738Y7482839D01*
X3365738Y7325360D01*
X3208258Y7325360D01*
G37*
D21*
G01*
X3286988Y7658100D03*
G01*
X3540988Y7404100D03*
G01*
X3540988Y7658100D03*
G01*
X3794988Y7404100D03*
G01*
X3794988Y7658100D03*
G01*
X4048988Y7404100D03*
G01*
X4048988Y7658100D03*
G01*
X4302988Y7404100D03*
G01*
X4302988Y7658100D03*
G01*
X4556988Y7404100D03*
G01*
X4556988Y7658100D03*
G01*
X4810988Y7404100D03*
G01*
X4810988Y7658100D03*
G01*
X5064988Y7404100D03*
G01*
X5064988Y7658100D03*
G01*
X5318988Y7404100D03*
G01*
X5318988Y7658100D03*
G01*
X5572988Y7404100D03*
G01*
X5572988Y7658100D03*
G01*
X5826988Y7404100D03*
G01*
X5826988Y7658100D03*
G01*
X6080988Y7404100D03*
G01*
X6080988Y7658100D03*
G01*
X6334988Y7404100D03*
G01*
X6334988Y7658100D03*
G01*
X6588988Y7404100D03*
G01*
X6588988Y7658100D03*
G01*
X6842988Y7404100D03*
G01*
X6842988Y7658100D03*
G01*
X7096988Y7404100D03*
G01*
X7096988Y7658100D03*
G01*
X7350988Y7404100D03*
G01*
X7350988Y7658100D03*
G01*
X7604988Y7404100D03*
G01*
X7604988Y7658100D03*
G01*
X7858988Y7404100D03*
G01*
X7858988Y7658100D03*
G01*
X8112988Y7404100D03*
G01*
X8112988Y7658100D03*
G36*
X1648460Y9260839D02*
G01*
X1805939Y9260839D01*
X1805939Y9103360D01*
X1648460Y9103360D01*
G37*
G01*
X1981200Y9182100D03*
G01*
X2235200Y9182100D03*
G01*
X2489200Y9182100D03*
D13*
G01*
X1498600Y5383276D03*
G01*
X2490724Y6722871D03*
G01*
X4446777Y5627370D03*
G01*
X3872738Y5917184D03*
G01*
X2865120Y8192262D03*
M02*
